HIERARCHY
ROOT Hips
{
    OFFSET 0.000000 0.000000 0.000000
    CHANNELS 6 Xposition Yposition Zposition Zrotation Xrotation Yrotation
    JOINT Spine
    {
        OFFSET -0.000000 7.246840 0.000000
        CHANNELS 3 Zrotation Xrotation Yrotation
        JOINT Spine1
        {
            OFFSET -0.000000 20.289354 0.000000
            CHANNELS 3 Zrotation Xrotation Yrotation
            JOINT Neck
            {
                OFFSET -0.000000 20.206032 1.836912
                CHANNELS 3 Zrotation Xrotation Yrotation
                JOINT Head
                {
                    OFFSET -0.000000 12.372654 -1.767522
                    CHANNELS 3 Zrotation Xrotation Yrotation
                    End Site
                    {
                        OFFSET -0.000000 22.094025 0.000000
                    }
                }
            }
            JOINT LeftShoulder
            {
                OFFSET 3.465871 17.201674 -0.568930
                CHANNELS 3 Zrotation Xrotation Yrotation
                JOINT LeftArm
                {
                    OFFSET 14.070313 0.000000 0.000000
                    CHANNELS 3 Zrotation Xrotation Yrotation
                    JOINT LeftForeArm
                    {
                        OFFSET 26.549477 0.000000 0.000000
                        CHANNELS 3 Zrotation Xrotation Yrotation
                        JOINT LeftHand
                        {
                            OFFSET 18.880413 0.000000 0.000000
                            CHANNELS 3 Zrotation Xrotation Yrotation
                            End Site
                            {
                                OFFSET 13.256415 0.000000 0.000000
                            }
                        }
                    }
                }
            }
            JOINT RightShoulder
            {
                OFFSET -3.526370 17.201674 -0.568930
                CHANNELS 3 Zrotation Xrotation Yrotation
                JOINT RightArm
                {
                    OFFSET -14.070313 0.000000 0.000000
                    CHANNELS 3 Zrotation Xrotation Yrotation
                    JOINT RightForeArm
                    {
                        OFFSET -26.549477 0.000000 0.000000
                        CHANNELS 3 Zrotation Xrotation Yrotation
                        JOINT RightHand
                        {
                            OFFSET -18.880413 0.000000 0.000000
                            CHANNELS 3 Zrotation Xrotation Yrotation
                            End Site
                            {
                                OFFSET -13.256415 0.000000 0.000000
                            }
                        }
                    }
                }
            }
        }
    }
    JOINT LeftUpLeg
    {
        OFFSET 8.837609 0.000000 0.000000
        CHANNELS 3 Zrotation Xrotation Yrotation
        JOINT LeftLeg
        {
            OFFSET -0.000000 -41.345005 0.000000
            CHANNELS 3 Zrotation Xrotation Yrotation
            JOINT LeftFoot
            {
                OFFSET -0.000000 -35.500874 0.000000
                CHANNELS 3 Zrotation Xrotation Yrotation
                JOINT LeftToeBase
                {
                    OFFSET -0.000000 -5.744446 13.256415
                    CHANNELS 3 Zrotation Xrotation Yrotation
                    End Site
                    {
                        OFFSET -0.000000 0.000000 3.535044
                    }
                }
            }
        }
    }
    JOINT RightUpLeg
    {
        OFFSET -8.837609 0.000000 0.000000
        CHANNELS 3 Zrotation Xrotation Yrotation
        JOINT RightLeg
        {
            OFFSET -0.000000 -41.345005 0.000000
            CHANNELS 3 Zrotation Xrotation Yrotation
            JOINT RightFoot
            {
                OFFSET -0.000000 -35.500874 0.000000
                CHANNELS 3 Zrotation Xrotation Yrotation
                JOINT RightToeBase
                {
                    OFFSET -0.000000 -5.744446 13.256415
                    CHANNELS 3 Zrotation Xrotation Yrotation
                    End Site
                    {
                        OFFSET -0.000000 0.000000 3.535044
                    }
                }
            }
        }
    }
}
MOTION
Frames:    11
Frame Time:    0.010000
-3.575939    83.771965    15.910247    6.849619    5.848799    -10.659545    3.607765    -4.814723    -0.125215    0.442767    4.722504    -0.295314    11.745668    31.436626    -13.279456    -9.038651    -57.972221    -17.840258    9.429557    7.283979    5.489430    -87.575615    50.958420    -2.680449    2.579811    -14.985959    -27.939568    -26.404608    -12.269024    -9.159292    -2.770136    -14.884648    20.789375    58.645668    9.423366    50.289398    -2.668230    -32.999870    112.219322    -69.102470    -14.671308    -23.033344    -3.003923    0.567681    4.080927    -1.624163    -2.929411    0.589650    -1.337327    0.954312    -4.522897    -0.341352    -4.670746    0.492039    -11.378099    -2.646088    -4.366880    4.683268    0.248084    -0.182961    5.078164    -2.060735    -2.832330    -1.504979    -0.073991    2.700723    
-3.625727    83.763313    15.932873    6.836017    5.789800    -10.822252    3.642513    -4.839167    -0.125610    0.426288    4.734243    -0.297135    11.938567    31.479639    -13.323689    -9.141504    -57.964806    -17.917362    9.535836    7.270792    5.440273    -87.792389    50.852222    -2.538522    2.554409    -15.060690    -27.917690    -26.424353    -12.340744    -9.197980    -2.740718    -14.900647    20.823662    58.525757    9.419863    50.293003    -2.672288    -33.078205    112.194489    -68.974358    -14.788298    -23.043623    -2.985272    0.651882    4.186587    -1.603029    -2.910046    0.675555    -1.341145    0.869181    -4.542705    -0.337473    -4.644325    0.486364    -11.331529    -2.658251    -4.255508    4.666317    0.341642    -0.194530    5.069270    -2.106359    -2.766979    -1.525477    -0.079203    2.737653    
-3.676318    83.753265    15.957379    6.817431    5.726597    -11.018428    3.667084    -4.855632    -0.109307    0.460356    4.744172    -0.284094    11.950989    31.541149    -13.338135    -8.946303    -57.955299    -17.795834    9.585810    7.206275    5.395010    -88.007729    50.858753    -2.320359    2.515222    -15.191443    -27.955133    -26.425564    -12.475434    -9.224656    -2.762502    -14.924555    20.825893    58.420643    9.486981    50.371605    -2.688348    -33.221088    112.130928    -68.750885    -14.943725    -23.124714    -2.953207    0.754819    4.299249    -1.586451    -2.911107    0.727408    -1.354021    0.801371    -4.493460    -0.328389    -4.632649    0.473236    -11.279218    -2.672769    -4.125217    4.644366    0.428484    -0.186260    5.091605    -2.143223    -2.682059    -1.509154    -0.075818    2.708268    
-3.728829    83.742126    15.972306    6.794486    5.671678    -11.214694    3.695701    -4.842968    -0.091518    0.485977    4.697271    -0.267837    12.058868    31.637648    -13.366737    -8.960194    -57.983494    -17.808304    9.622594    7.209096    5.379889    -88.103043    50.875217    -2.240735    2.480944    -15.328802    -27.941427    -26.769781    -12.549737    -9.415715    -2.763376    -14.933408    20.858488    58.332283    9.475067    50.433727    -2.614373    -33.244526    112.121025    -68.629303    -15.050033    -23.215517    -2.909461    0.839676    4.418376    -1.590571    -2.904596    0.826261    -1.377485    0.734320    -4.530928    -0.339265    -4.619010    0.488865    -11.218211    -2.702146    -4.015231    4.625016    0.522263    -0.145855    5.051656    -2.169578    -2.636963    -1.523156    -0.092995    2.733896    
-3.786184    83.727463    15.994292    6.746863    5.619043    -11.459763    3.866270    -4.832972    -0.002863    0.342630    4.640071    -0.180238    12.147168    31.714916    -13.404322    -8.908852    -57.944893    -17.787407    9.685139    7.195482    5.277830    -88.103271    50.944473    -2.149601    2.364193    -15.497468    -28.025566    -26.738926    -12.742067    -9.448062    -2.764959    -14.921070    20.799919    58.272057    9.513992    50.571110    -2.538850    -33.251232    112.109070    -68.578987    -15.138228    -23.278278    -2.838275    0.950462    4.600762    -1.577551    -2.928659    0.807928    -1.407815    0.680101    -4.458952    -0.352403    -4.600775    0.507736    -11.125515    -2.731227    -3.866949    4.602332    0.600311    -0.115373    5.070896    -2.183295    -2.551220    -1.511461    -0.097695    2.713048    
-3.833763    83.716774    16.007597    6.710224    5.568769    -11.653048    3.899186    -4.797926    0.015066    0.367753    4.553261    -0.162858    12.234025    31.778349    -13.382982    -8.938890    -57.862083    -17.756207    9.758671    7.176620    5.267014    -88.313347    50.929298    -2.005467    2.347936    -15.589569    -28.014410    -26.718388    -12.846361    -9.426125    -2.758805    -14.915806    20.850147    57.917278    9.615058    50.749390    -2.588063    -33.539989    112.005486    -68.515671    -15.212104    -23.586037    -2.780324    1.044985    4.678961    -1.574376    -2.947697    0.861487    -1.436224    0.664151    -4.384333    -0.336230    -4.603463    0.484444    -11.056532    -2.749474    -3.794208    4.591281    0.665262    -0.092965    5.040596    -2.199366    -2.449818    -1.535133    -0.104356    2.755726    
-3.880548    83.707680    16.022106    6.684236    5.514306    -11.862012    3.924054    -4.765501    0.043440    0.407868    4.475203    -0.135989    12.309816    31.844534    -13.369945    -9.018931    -57.793766    -17.768238    9.764490    7.180452    5.264637    -88.420975    50.855385    -1.930123    2.337276    -15.604180    -28.002518    -26.737288    -12.872341    -9.383437    -2.781831    -14.922830    20.863436    57.757172    9.647572    50.874607    -2.520499    -33.545986    111.969780    -68.472076    -15.212495    -23.756092    -2.733410    1.152462    4.795078    -1.583899    -2.992660    0.943504    -1.449753    0.664909    -4.382141    -0.350878    -4.591360    0.505508    -10.996713    -2.761286    -3.736094    4.577502    0.721944    -0.053074    5.062068    -2.219413    -2.342931    -1.549164    -0.096736    2.780677    
-3.922809    83.700874    16.036110    6.675548    5.463360    -12.053886    3.948625    -4.751515    0.062550    0.425083    4.435288    -0.117657    12.430387    31.893711    -13.355190    -9.240743    -57.753822    -17.867334    9.773232    7.159258    5.271942    -88.536949    50.774261    -1.865473    2.370140    -15.600134    -27.943117    -26.754946    -12.863974    -9.366557    -2.800593    -14.955775    20.878504    57.519104    9.762586    50.996769    -2.438154    -33.596981    111.948853    -68.723816    -15.272082    -23.816214    -2.701656    1.253164    4.872992    -1.596573    -3.035803    1.043225    -1.483775    0.665953    -4.371774    -0.343167    -4.598240    0.494421    -10.958193    -2.763842    -3.710635    4.568504    0.749671    0.002550    5.064841    -2.219028    -2.225960    -1.538653    -0.092792    2.761698    
-3.961106    83.696983    16.046780    6.682988    5.419845    -12.235456    3.991385    -4.750816    0.079995    0.384114    4.408360    -0.101262    12.464397    31.945484    -13.315269    -9.204705    -57.706577    -17.786638    9.783618    7.127588    5.252998    -88.628487    50.659729    -1.811047    2.635660    -15.379066    -27.766624    -26.947071    -12.592973    -9.242276    -2.791560    -14.977435    20.908749    57.641945    9.595278    51.101662    -2.174122    -33.170532    112.038307    -68.708061    -15.152752    -23.821859    -2.689419    1.333168    4.975266    -1.600452    -3.064320    1.085157    -1.539925    0.663906    -4.351183    -0.350528    -4.580626    0.504969    -10.935761    -2.770655    -3.689700    4.557698    0.767926    0.011260    5.062543    -2.217570    -2.091457    -1.564435    -0.086651    2.807774    
-3.994323    83.699814    16.056707    6.720176    5.389616    -12.408357    4.037878    -4.775576    0.091845    0.267419    4.379954    -0.087622    12.593142    32.021336    -13.269196    -9.315003    -57.663776    -17.776081    9.862823    7.150474    5.248743    -88.682755    50.563675    -1.831146    2.676787    -15.329789    -27.713614    -26.950928    -12.539409    -9.219782    -2.740682    -14.997747    20.975357    57.520905    9.583466    51.187141    -2.103209    -33.047562    112.064728    -68.512039    -15.253210    -23.704500    -2.707530    1.390574    5.029121    -1.598209    -3.087331    1.136211    -1.633066    0.659396    -4.323256    -0.372723    -4.589915    0.536975    -10.946044    -2.824214    -3.952489    4.543460    0.870216    0.317993    5.070594    -2.243536    -1.988928    -1.578035    -0.083097    2.832067    
-4.033486    83.704117    16.068773    6.768712    5.353785    -12.558495    4.038145    -4.818459    0.090242    0.194072    4.388642    -0.087631    12.737013    32.120071    -13.242428    -9.452772    -57.710983    -17.805534    9.914222    7.170682    5.251098    -88.719231    50.535442    -1.851571    2.745527    -15.293682    -27.686733    -26.893204    -12.497081    -9.197186    -2.698196    -15.003891    21.028996    57.342335    9.646651    51.301487    -2.024512    -33.019737    112.109901    -68.369949    -15.313968    -23.791245    -2.730163    1.445367    5.061799    -1.593344    -3.097897    1.178912    -1.685109    0.654342    -4.283255    -0.379389    -4.568042    0.546500    -10.957807    -2.830549    -3.950372    4.521546    0.875392    0.359763    5.090047    -2.226625    -1.892330    -1.576401    -0.066384    2.828625    
